<?xml version="1.0" encoding="UTF-8"?>
<svg id="Layer_1" data-name="Layer 1" xmlns="http://www.w3.org/2000/svg" xmlns:xlink="http://www.w3.org/1999/xlink" version="1.1" viewBox="0 0 200 75">
  <defs>
    <style>
      .cls-1 {
        fill: #fff;
        font-family: Inter-Bold, Inter;
        font-size: 48px;
        font-weight: 700;
      }

      .cls-2 {
        fill: url(#linear-gradient);
        stroke-width: 0px;
      }

      .cls-3 {
        fill: none;
        filter: url(#drop-shadow-1);
        stroke: #fff;
        stroke-linecap: round;
        stroke-linejoin: round;
        stroke-width: 4px;
      }
    </style>
    <linearGradient id="linear-gradient" x1="2.8" y1="36.6" x2="57.4" y2="36.6" gradientTransform="translate(0 74.1) scale(1 -1)" gradientUnits="userSpaceOnUse">
      <stop offset="0" stop-color="#6274e7"/>
      <stop offset="1" stop-color="#8752a3"/>
    </linearGradient>
    <filter id="drop-shadow-1" filterUnits="userSpaceOnUse">
      <feOffset dx="2" dy="2"/>
      <feGaussianBlur result="blur" stdDeviation="0"/>
      <feFlood flood-color="#757575" flood-opacity=".6"/>
      <feComposite in2="blur" operator="in"/>
      <feComposite in="SourceGraphic"/>
    </filter>
  </defs>
  <g>
    <path class="cls-2" d="M22.2,10.2c1,0,2,0,3,0h9.8c1,0,2,0,3,0,2.7,0,5.5,0,7.3,0,6.7.4,11.4,4.5,12,11.4.1,2.5.1,5.5.1,9h0c0,.6,0,1.2,0,1.9v9.8c0,.6,0,1.3,0,1.9,0,3.5,0,6.5-.1,9-.6,6.9-5.2,11-12,11.4-1.8.1-4.6,0-7.3,0-1,0-2,0-3,0h-9.8c-1,0-2,0-3,0-2.7,0-5.5,0-7.3,0-6.7-.4-11.4-4.5-12-11.4-.1-2.5-.1-5.5-.1-9h0c0-.6,0-1.2,0-1.9v-9.8c0-.6,0-1.3,0-1.9h0c0-3.5,0-6.5.1-9,.6-6.9,5.2-11,12-11.4,1.8-.1,4.6,0,7.3,0Z"/>
    <path class="cls-3" d="M8.4,37.5c21.6-46.6,21.6,46.6,43.3,0"/>
  </g>
  <text class="cls-1" transform="translate(60.4 55.7)"><tspan x="0" y="0">ECHO</tspan></text>
</svg>