<?xml version="1.0" encoding="UTF-8"?>
<svg id="Layer_1" data-name="Layer 1" xmlns="http://www.w3.org/2000/svg" xmlns:xlink="http://www.w3.org/1999/xlink" version="1.1" viewBox="0 0 1024 1024">
  <defs>
    <style>
      .cls-1 {
        fill: none;
        filter: url(#drop-shadow-1);
        stroke: #fff;
        stroke-linecap: round;
        stroke-linejoin: round;
        stroke-width: 42px;
      }

      .cls-2 {
        fill: url(#linear-gradient);
        stroke-width: 0px;
      }
    </style>
    <linearGradient id="linear-gradient" x1="16.3" y1="512.1" x2="1007.7" y2="512.1" gradientTransform="translate(0 1024.1) scale(1 -1)" gradientUnits="userSpaceOnUse">
      <stop offset="0" stop-color="#6274e7"/>
      <stop offset="1" stop-color="#8752a3"/>
    </linearGradient>
    <filter id="drop-shadow-1" filterUnits="userSpaceOnUse">
      <feOffset dx="7" dy="7"/>
      <feGaussianBlur result="blur" stdDeviation="0"/>
      <feFlood flood-color="#757575" flood-opacity=".6"/>
      <feComposite in2="blur" operator="in"/>
      <feComposite in="SourceGraphic"/>
    </filter>
  </defs>
  <path class="cls-2" d="M368.5,16.1c18.4.1,36.8.3,54.3.3h178.4c17.5,0,35.9-.1,54.3-.3,49.5-.3,99-.7,132.6,1.5,122.1,7.8,206.3,81.8,217.1,207.5,2.6,45.2,2.5,99.6,2.4,163.8h0c0,11,0,22.3,0,33.9v178.4c0,11.6,0,22.9,0,33.9,0,64.2.1,118.6-2.4,163.8-10.8,125.7-95,199.7-217.1,207.5-33.5,2.1-83.1,1.8-132.6,1.5-18.4-.1-36.8-.3-54.3-.3h-178.4c-17.5,0-35.9.1-54.3.3-49.5.3-99,.7-132.6-1.5-122.1-7.8-206.3-81.8-217.1-207.5-2.6-45.2-2.5-99.6-2.4-163.8h0c0-11,0-22.3,0-33.9v-178.4c0-11.6,0-22.9,0-33.9h0c0-64.2-.1-118.6,2.4-163.8C29.6,99.4,113.8,25.4,235.9,17.6c33.5-2.1,83.1-1.8,132.6-1.5Z"/>
  <path class="cls-1" d="M119,512.2c393-846.5,393,846.5,786,0"/>
</svg>